<svg width="20" height="17" viewBox="0 0 20 17" fill="none" xmlns="http://www.w3.org/2000/svg">
<path d="M20 2.172C19.2511 2.50398 18.4565 2.72174 17.643 2.818C18.5005 2.30581 19.1422 1.49886 19.448 0.548005C18.6424 1.02607 17.7611 1.36292 16.842 1.544C16.4582 1.13427 15.9944 0.807799 15.4791 0.584854C14.9639 0.36191 14.4084 0.247254 13.847 0.248005C11.197 0.248005 9.251 2.72 9.849 5.285C8.21772 5.20362 6.62178 4.78006 5.16482 4.04185C3.70785 3.30363 2.42243 2.26726 1.392 1C0.867744 1.90348 0.707256 2.9727 0.943166 3.99028C1.17908 5.00785 1.79368 5.89738 2.662 6.478C2.01062 6.45762 1.37356 6.28173 0.804 5.965C0.759 7.865 2.122 9.644 4.095 10.04C3.49071 10.2041 2.85694 10.228 2.242 10.11C2.50402 10.9253 3.01438 11.6383 3.70168 12.1491C4.38897 12.66 5.21879 12.9431 6.075 12.959C4.35502 14.3077 2.17011 14.9188 0 14.658C1.87628 15.8634 4.05989 16.5032 6.29 16.501C13.908 16.501 18.213 10.067 17.953 4.296C18.7559 3.71503 19.4491 2.99582 20 2.172V2.172Z" fill="white"/>
</svg>
